<svg width="100" height="21" viewBox="0 0 100 21" fill="none" xmlns="http://www.w3.org/2000/svg">
<g clip-path="url(#clip0_505_2)">
<path d="M17.8834 0V20.8607H14.4189L4.67812 8.37686V20.8607H0V0H3.28631L13.1753 12.6448V0H17.8834Z" fill="black"/>
<path d="M36.6177 0V12.9125C36.6177 13.7399 36.4489 14.4587 36.115 15.069C35.7792 15.6792 35.3103 16.1416 34.7082 16.458C34.1061 16.7724 33.4308 16.9297 32.6805 16.9297C31.9302 16.9297 31.2193 16.7724 30.6078 16.458C29.9963 16.1435 29.5067 15.6811 29.1428 15.069C28.7771 14.4587 28.5951 13.7287 28.5951 12.8826V0H23.917V12.6467C23.917 14.2828 24.2884 15.7448 25.0274 17.0345C25.7665 18.3261 26.7925 19.3388 28.1055 20.0783C29.4186 20.8158 30.9436 21.1864 32.6805 21.1864C34.4174 21.1864 35.8768 20.8158 37.1804 20.0783C38.4822 19.3388 39.4989 18.3299 40.2304 17.0495C40.9601 15.7691 41.3258 14.3109 41.3258 12.6767V0H36.6177Z" fill="black"/>
<path d="M57.6081 12.1347C58.304 12.0093 58.9455 11.8052 59.5307 11.5245C60.5961 11.0116 61.4252 10.2984 62.018 9.38298C62.6107 8.46574 62.9052 7.37815 62.9052 6.11647C62.9052 4.93529 62.6144 3.88139 62.033 2.95479C61.4496 2.03006 60.6355 1.30563 59.5889 0.78336C58.5422 0.261093 57.3192 -0.000976562 55.918 -0.000976562H47.3608V20.8597H52.039V12.2901H52.5173L58.7316 20.8597H64.2689L57.6099 12.1328L57.6081 12.1347ZM52.039 8.80643V3.6343H55.3853C56.2932 3.6343 56.9984 3.88139 57.503 4.37371C58.0057 4.86603 58.2571 5.4875 58.2571 6.2344C58.2571 7.02248 58.0001 7.64771 57.488 8.11007C56.9741 8.57431 56.2631 8.80455 55.3572 8.80455H52.0408L52.039 8.80643Z" fill="black"/>
<path d="M92.4181 5.1272L91.5515 3.80562L94.05 0H99.6154L94.1832 7.81529L92.4181 5.1272Z" fill="black"/>
<path d="M99.9994 20.8609H94.6404L91.5454 16.1211L92.277 15.0036L94.0589 12.2725L99.9994 20.8609Z" fill="black"/>
<path d="M92.1749 9.94741L89.8884 13.4498L89.8471 13.5153L85.049 20.8607H79.6899L87.116 10.1271L80.0763 0H85.6417L89.8471 6.40198L90.0328 6.68651L92.1749 9.94741Z" fill="#245AE2"/>
<path d="M73.6574 0H68.9792V3.71015H73.6574V0Z" fill="black"/>
<path d="M73.6574 3.70996V20.8605H68.9792V8.37854C68.9792 5.8009 71.0745 3.70996 73.6574 3.70996Z" fill="black"/>
</g>
<defs>
<clipPath id="clip0_505_2">
<rect width="100" height="21" fill="white"/>
</clipPath>
</defs>
</svg>
