<svg width="157" height="47" viewBox="0 0 157 47" fill="none" xmlns="http://www.w3.org/2000/svg">
<g clip-path="url(#clip0_2418_18437)">
<path d="M12.5256 6.09755C12.5256 6.09755 11.5473 7.89385 11.0104 8.93338C10.7938 9.35305 10.8198 9.85709 11.0793 10.2513L19.2385 22.5934C19.4808 22.9616 19.8893 23.2284 20.3281 23.2297C22.1954 23.2317 27.7493 23.2297 27.7493 23.2297C28.71 23.2349 29.5954 22.7047 30.0491 21.8563L33.7979 16.7593C33.8933 16.5799 33.8824 16.3628 33.7698 16.1951L31.5904 12.8848C31.3591 12.5402 30.8452 12.5685 30.6493 12.9327L25.1593 21.3349C25.005 21.571 24.741 21.7122 24.459 21.7093L24.1021 21.7057C23.8256 21.7029 23.5689 21.5621 23.4179 21.3305L13.4672 6.06035C13.242 5.71166 12.7231 5.73229 12.5231 6.09703L12.5241 6.09856L12.5256 6.09755Z" fill="#09C9F7"/>
<path d="M12.5256 6.09755C12.5256 6.09755 11.5473 7.89385 11.0104 8.93338C10.7938 9.35305 10.8198 9.85709 11.0793 10.2513L19.2385 22.5934C19.4808 22.9616 19.8893 23.2284 20.3281 23.2297C22.1954 23.2317 27.7493 23.2297 27.7493 23.2297C28.71 23.2349 29.5954 22.7047 30.0491 21.8563L33.7979 16.7593C33.8933 16.5799 33.8824 16.3628 33.7698 16.1951L31.5904 12.8848C31.3591 12.5402 30.8452 12.5685 30.6493 12.9327L25.1593 21.3349C25.005 21.571 24.741 21.7122 24.459 21.7093L24.1021 21.7057C23.8256 21.7029 23.5689 21.5621 23.4179 21.3305L13.4672 6.06035C13.242 5.71166 12.7231 5.73229 12.5231 6.09703L12.5241 6.09856L12.5256 6.09755Z" fill="url(#paint0_radial_2418_18437)"/>
<path d="M45.7645 28.7055C45.7645 28.7055 44.8021 26.9006 44.2291 25.8806C43.9977 25.4689 43.5625 25.2134 43.0905 25.2134L31.0587 25.2134C30.618 25.2134 30.2102 25.4618 29.9678 25.8276C28.9393 27.3862 26.2194 31.5069 26.2194 31.5069C25.6868 32.3064 25.6427 33.3375 26.1018 34.183L30.0522 39.5902C30.1495 39.7685 30.3368 39.8788 30.5389 39.8769L34.5022 39.8769C34.9172 39.8733 35.1762 39.4285 34.9797 39.0646L29.0459 29.9704C28.9118 29.7222 29.0918 29.4227 29.3728 29.4245L45.2778 29.5124C45.6929 29.5161 45.961 29.0713 45.7663 28.7037L45.7645 28.7037L45.7645 28.7055Z" fill="#09C9F7"/>
<path d="M45.7645 28.7055C45.7645 28.7055 44.8021 26.9006 44.2291 25.8806C43.9977 25.4689 43.5625 25.2134 43.0905 25.2134L31.0587 25.2134C30.618 25.2134 30.2102 25.4618 29.9678 25.8276C28.9393 27.3862 26.2194 31.5069 26.2194 31.5069C25.6868 32.3064 25.6427 33.3375 26.1018 34.183L30.0522 39.5902C30.1495 39.7685 30.3368 39.8788 30.5389 39.8769L34.5022 39.8769C34.9172 39.8733 35.1762 39.4285 34.9797 39.0646L29.0459 29.9704C28.9118 29.7222 29.0918 29.4227 29.3728 29.4245L45.2778 29.5124C45.6929 29.5161 45.961 29.0713 45.7663 28.7037L45.7645 28.7037L45.7645 28.7055Z" fill="url(#paint1_radial_2418_18437)"/>
<path d="M0.0665623 28.7055C0.0665623 28.7055 1.02892 26.9006 1.60193 25.8806C1.83334 25.4689 2.2686 25.2134 2.7406 25.2134L17.5358 25.2134C17.9766 25.2134 18.3843 25.4618 18.6267 25.8276C19.6552 27.3862 22.3752 31.5069 22.3752 31.5069C22.9078 32.3064 22.9518 33.3375 22.4927 34.183L18.5424 39.5902C18.445 39.7685 18.2577 39.8788 18.0557 39.8769L14.0924 39.8769C13.6773 39.8733 13.4184 39.4285 13.6149 39.0646L19.5487 29.9704C19.6827 29.7222 19.5028 29.4227 19.2218 29.4245L0.553251 29.5124C0.138188 29.5161 -0.12995 29.0713 0.0647257 28.7037L0.0665623 28.7037L0.0665623 28.7055Z" fill="#09C9F7"/>
<path d="M0.0665623 28.7055C0.0665623 28.7055 1.02892 26.9006 1.60193 25.8806C1.83334 25.4689 2.2686 25.2134 2.7406 25.2134L17.5358 25.2134C17.9766 25.2134 18.3843 25.4618 18.6267 25.8276C19.6552 27.3862 22.3752 31.5069 22.3752 31.5069C22.9078 32.3064 22.9518 33.3375 22.4927 34.183L18.5424 39.5902C18.445 39.7685 18.2577 39.8788 18.0557 39.8769L14.0924 39.8769C13.6773 39.8733 13.4184 39.4285 13.6149 39.0646L19.5487 29.9704C19.6827 29.7222 19.5028 29.4227 19.2218 29.4245L0.553251 29.5124C0.138188 29.5161 -0.12995 29.0713 0.0647257 28.7037L0.0665623 28.7037L0.0665623 28.7055Z" fill="url(#paint2_radial_2418_18437)"/>
<path d="M56.4799 39.9083C56.1899 39.9083 55.9599 39.6783 55.9599 39.3883V19.5983C55.9599 19.3083 55.7299 19.0783 55.4399 19.0783H47.2199C46.8299 19.0783 46.5699 18.6583 46.7599 18.3083L48.1699 15.6283C48.3799 15.2283 48.7999 14.9783 49.2499 14.9783H69.9699C70.2599 14.9783 70.4899 15.2083 70.4899 15.4983V18.5483C70.4899 18.8383 70.2599 19.0683 69.9699 19.0683H57.7099V19.6483C59.2099 19.6483 60.3099 20.5383 60.3099 22.3183V39.3783C60.3099 39.6683 60.0799 39.8983 59.7899 39.8983H56.4899L56.4799 39.9083Z" fill="#010B11"/>
<path d="M72.2 40.3683C68.67 40.3683 66.25 37.5583 66.25 32.4983V21.9783C66.25 21.6883 66.48 21.4583 66.77 21.4583H69.96C70.25 21.4583 70.48 21.6883 70.48 21.9783V32.0283C70.48 34.9883 71.83 36.5183 74.08 36.5183C76.64 36.5183 78.28 34.4483 78.28 31.4283V21.9783C78.28 21.6883 78.51 21.4583 78.8 21.4583H81.99C82.28 21.4583 82.51 21.6883 82.51 21.9783V39.3783C82.51 39.6683 82.28 39.8983 81.99 39.8983H78.8C78.51 39.8983 78.28 39.6683 78.28 39.3783V36.9783H77.7C76.92 38.9683 74.68 40.3583 72.19 40.3583L72.2 40.3683Z" fill="#010B11"/>
<path d="M87.1499 39.9083C86.8599 39.9083 86.6299 39.6783 86.6299 39.3883V21.4583H95.6899C95.9799 21.4583 96.2099 21.6883 96.2099 21.9783V24.6683C96.2099 24.9583 95.9799 25.1883 95.6899 25.1883H88.3799V25.7683C89.9099 25.7683 90.8399 26.3783 90.8399 27.9383V39.3683C90.8399 39.6583 90.6099 39.8883 90.3199 39.8883H87.1599L87.1499 39.9083Z" fill="#010B11"/>
<path d="M106.56 46.9883C102.33 46.9883 98.1395 44.7283 97.7195 40.3383C97.6995 40.1383 97.8595 39.9783 98.0595 39.9783H101.61C101.78 39.9783 101.92 40.0983 101.96 40.2683C102.48 42.4183 104.31 43.3283 106.56 43.3283C109.48 43.3283 111.55 41.5483 111.55 37.9883V35.3183H110.97C110.12 37.8783 107.74 39.0583 105.28 39.0583C100.65 39.0583 97.5195 35.0683 97.5195 30.0883C97.5195 24.8583 100.94 20.9683 105.28 20.9683C108.02 20.9683 110.15 22.5383 110.97 24.8483H111.55V21.9883C111.55 21.6983 111.78 21.4683 112.07 21.4683H115.23C115.52 21.4683 115.75 21.6983 115.75 21.9883V37.5983C115.75 43.2283 112.12 46.9983 106.56 46.9983V46.9883ZM106.52 35.1683C109.4 35.1683 111.36 32.9283 111.36 30.0383C111.36 26.9783 109.22 24.8383 106.52 24.8383C103.82 24.8383 101.71 27.0483 101.71 29.9983C101.71 32.9483 103.74 35.1583 106.52 35.1583V35.1683Z" fill="#010B11"/>
<path d="M128.12 40.3683C122.49 40.3683 118.43 36.7683 118.43 30.6783C118.43 24.5883 122.45 20.9583 128.12 20.9583C133.79 20.9583 137.81 24.4883 137.81 30.6783C137.81 36.8683 133.75 40.3683 128.12 40.3683ZM128.12 36.5183C131.04 36.5183 133.5 34.3483 133.5 30.6783C133.5 27.0083 130.97 24.8383 128.12 24.8383C124.99 24.8383 122.74 26.9383 122.74 30.6783C122.74 34.4183 124.91 36.5183 128.12 36.5183Z" fill="#010B11"/>
<path d="M140.82 39.9083C140.53 39.9083 140.3 39.6783 140.3 39.3883V21.9883C140.3 21.6983 140.53 21.4683 140.82 21.4683H143.98C144.27 21.4683 144.5 21.6983 144.5 21.9883V24.5983H145.08C145.86 22.5283 147.99 20.9683 150.66 20.9683C154.22 20.9683 156.89 23.8483 156.89 28.7683V39.3883C156.89 39.6783 156.66 39.9083 156.37 39.9083H153.18C152.89 39.9083 152.66 39.6783 152.66 39.3883V29.6583C152.66 26.6283 151.27 25.0283 148.96 25.0283C146.22 25.0283 144.51 27.2383 144.51 30.2583V39.3883C144.51 39.6783 144.28 39.9083 143.99 39.9083H140.83H140.82Z" fill="#010B11"/>
</g>
<defs>
<radialGradient id="paint0_radial_2418_18437" cx="0" cy="0" r="1" gradientTransform="matrix(-14.8736 -3.15155 3.52312 17.1493 25.5692 11.6609)" gradientUnits="userSpaceOnUse">
<stop stop-color="#03586B"/>
<stop offset="0.625" stop-color="#09C9F7"/>
</radialGradient>
<radialGradient id="paint1_radial_2418_18437" cx="0" cy="0" r="1" gradientTransform="matrix(9.34877 -9.99479 -14.0614 -6.06591 35.553 35.8041)" gradientUnits="userSpaceOnUse">
<stop stop-color="#03586B"/>
<stop offset="0.625" stop-color="#09C9F7"/>
</radialGradient>
<radialGradient id="paint2_radial_2418_18437" cx="0" cy="0" r="1" gradientTransform="matrix(-10.6376 -9.99479 15.9999 -6.06591 11.695 35.8041)" gradientUnits="userSpaceOnUse">
<stop stop-color="#03586B"/>
<stop offset="0.625" stop-color="#09C9F7"/>
</radialGradient>
<clipPath id="clip0_2418_18437">
<rect width="156.89" height="46.9883" fill="white"/>
</clipPath>
</defs>
</svg>
