<svg width="72" height="20" viewBox="0 0 72 20" fill="none" xmlns="http://www.w3.org/2000/svg">
<g clip-path="url(#clip0_2771_589)">
<path d="M29.7642 5.78787H33.0511V19.5799H29.8205L29.6517 17.5659C28.8654 19.1889 26.7023 19.9719 25.1567 19.9999C21.0553 20.0279 18.0215 17.5099 18.0215 12.6699C18.0215 7.91387 21.1959 5.42487 25.2411 5.45287C27.0959 5.45287 28.8654 6.31987 29.6517 7.69087L29.7642 5.78787ZM21.454 12.6699C21.454 15.2999 23.2798 16.8699 25.5554 16.8699C30.9492 16.8699 30.9492 8.50587 25.5554 8.50587C23.2747 8.49987 21.454 10.0409 21.454 12.6699Z" fill="white"/>
<path d="M38.2245 5.78809V13.0061C38.2245 15.1061 39.3764 16.6991 41.5677 16.6991C43.6766 16.6991 45.1077 14.9361 45.1077 12.8381V5.78809H48.5071V19.6081H45.4411L45.2161 17.7341C43.783 19.1341 42.4635 19.8041 40.5242 19.8041C37.2102 19.8041 34.793 17.3141 34.793 13.0341V5.78809H38.2245Z" fill="white"/>
<path d="M54.3759 0.0249023V19.5799H50.9785V0.0249023H54.3759Z" fill="white"/>
<path d="M61.6521 1.8999V5.8159H65.4733V8.7539H61.624V14.7119C61.624 16.0269 62.3541 16.6709 63.4216 16.6709C63.9986 16.6543 64.5648 16.5109 65.0796 16.2509L66.0347 19.1609C65.1351 19.5344 64.1722 19.7336 63.1977 19.7479C60.1909 19.8599 58.2246 18.1479 58.2246 14.7119V8.7539H55.6396V5.8159H58.2246V2.2629L61.6521 1.8999Z" fill="white"/>
<path d="M67.3838 17.846C67.3838 20.504 71.4289 20.504 71.4289 17.846C71.4289 15.188 67.3838 15.188 67.3838 17.846Z" fill="white"/>
<path d="M15.9787 0.0329987L10.5557 17.957C10.5372 18.0188 10.4991 18.073 10.4472 18.1115C10.3953 18.1501 10.3323 18.1709 10.2675 18.171H9.77139C9.70646 18.1711 9.64323 18.1504 9.59111 18.1118C9.53899 18.0732 9.50078 18.0189 9.48217 17.957L4.07024 0.0329987L0 0L5.81061 17.769C6.00767 18.3708 6.39083 18.8951 6.90527 19.2669C7.41972 19.6387 8.03908 19.839 8.67475 19.839H11.3742C12.0098 19.839 12.6292 19.6387 13.1437 19.2669C13.6581 18.8951 14.0413 18.3708 14.2383 17.769L20.0479 0L15.9787 0.0329987Z" fill="white"/>
</g>
<defs>
<clipPath id="clip0_2771_589">
<rect width="71.4287" height="20" fill="white"/>
</clipPath>
</defs>
</svg>
